<svg width="114" height="36" viewBox="0 0 114 36" fill="none" xmlns="http://www.w3.org/2000/svg">
<rect width="114" height="36" rx="5" fill="#1FCA25"/>
<path d="M30.4571 21L34.9651 10.388H35.0631L39.5711 21H37.6951L36.7571 18.606H33.0471L32.0671 21H30.4571ZM33.6211 17.206H36.2111L34.9371 14L33.6211 17.206ZM43.6622 14.714L43.6202 15.232L43.8442 14.91L47.6802 10.808H49.7802L45.5662 15.26L49.9342 21H47.8622L44.3762 16.296L43.6622 16.996V21H42.0102V10.808H43.6622V14.714ZM57.7105 12.88C57.3465 12.6933 56.9592 12.5347 56.5485 12.404C56.1472 12.264 55.7552 12.194 55.3725 12.194C54.8685 12.194 54.4672 12.306 54.1685 12.53C53.8792 12.7447 53.7345 13.0527 53.7345 13.454C53.7345 13.734 53.8372 13.9813 54.0425 14.196C54.2478 14.4013 54.5092 14.5833 54.8265 14.742C55.1438 14.9007 55.4798 15.0453 55.8345 15.176C56.2452 15.3253 56.6418 15.512 57.0245 15.736C57.4165 15.96 57.7385 16.268 57.9905 16.66C58.2425 17.0427 58.3685 17.556 58.3685 18.2C58.3685 18.732 58.2332 19.222 57.9625 19.67C57.6918 20.1087 57.3045 20.4587 56.8005 20.72C56.2965 20.9813 55.6852 21.112 54.9665 21.112C54.3318 21.112 53.7158 21.014 53.1185 20.818C52.5305 20.6127 52.0078 20.3513 51.5505 20.034L52.2785 18.76C52.6145 19.012 53.0158 19.2267 53.4825 19.404C53.9585 19.5813 54.4018 19.67 54.8125 19.67C55.1018 19.67 55.3865 19.6233 55.6665 19.53C55.9558 19.4367 56.1938 19.2827 56.3805 19.068C56.5765 18.8533 56.6745 18.5687 56.6745 18.214C56.6745 17.9247 56.5905 17.6773 56.4225 17.472C56.2545 17.2667 56.0352 17.0893 55.7645 16.94C55.5032 16.7813 55.2138 16.6413 54.8965 16.52C54.5792 16.3987 54.2525 16.2633 53.9165 16.114C53.5898 15.9647 53.2865 15.7827 53.0065 15.568C52.7265 15.344 52.4978 15.0733 52.3205 14.756C52.1432 14.4387 52.0545 14.0467 52.0545 13.58C52.0545 13.02 52.1852 12.5347 52.4465 12.124C52.7078 11.704 53.0672 11.3773 53.5245 11.144C53.9912 10.9107 54.5278 10.78 55.1345 10.752C55.8532 10.752 56.4645 10.8407 56.9685 11.018C57.4818 11.186 57.9345 11.3913 58.3265 11.634L57.7105 12.88ZM61.2109 10.808H62.8489V21H61.2109V10.808ZM69.0423 17.696L65.2763 10.808H67.2783L69.9103 15.834L72.4863 10.808H74.4883L70.6663 17.696V21H69.0423V17.696ZM74.4258 21L78.9338 10.388H79.0318L83.5398 21H81.6638L80.7258 18.606H77.0158L76.0358 21H74.4258ZM77.5898 17.206H80.1798L78.9058 14L77.5898 17.206Z" fill="white"/>
</svg>
