<svg width="184" height="36" viewBox="0 0 184 36" fill="none" xmlns="http://www.w3.org/2000/svg">
<rect width="184" height="36" rx="5" fill="#FF6B6B"/>
<path d="M31.9147 13.06L34.9247 18.24L37.9627 13.06H39.3347L35.5547 19.374V23H34.2947V19.346L30.5287 13.06H31.9147ZM42.6408 13.06H43.7048L47.7648 23H46.4208L45.2448 20.088H41.0728L39.9108 23H38.5668L42.6408 13.06ZM44.9648 19.108L43.1728 14.516L41.3248 19.108H44.9648ZM50.3514 15.384V23H49.0914V13.06H50.1554L56.2314 20.83V13.074H57.4914V23H56.3434L50.3514 15.384ZM63.8548 23.07C63.2015 23.07 62.5901 22.93 62.0208 22.65C61.4608 22.3607 60.9708 21.978 60.5508 21.502C60.1308 21.0167 59.8041 20.4753 59.5708 19.878C59.3375 19.2713 59.2208 18.646 59.2208 18.002C59.2208 17.33 59.3375 16.6953 59.5708 16.098C59.8041 15.4913 60.1261 14.9547 60.5368 14.488C60.9568 14.0213 61.4468 13.6573 62.0068 13.396C62.5761 13.1253 63.1921 12.99 63.8548 12.99C64.8161 12.99 65.6095 13.1907 66.2348 13.592C66.8601 13.9933 67.3315 14.516 67.6488 15.16L66.6828 15.832C66.3935 15.2533 65.9968 14.824 65.4928 14.544C64.9888 14.264 64.4335 14.124 63.8268 14.124C63.3228 14.124 62.8655 14.2313 62.4548 14.446C62.0441 14.6607 61.6895 14.9547 61.3908 15.328C61.1015 15.692 60.8775 16.1073 60.7188 16.574C60.5695 17.0407 60.4948 17.526 60.4948 18.03C60.4948 18.7393 60.6441 19.3927 60.9428 19.99C61.2508 20.578 61.6661 21.0493 62.1888 21.404C62.7115 21.7587 63.2995 21.936 63.9528 21.936C64.4848 21.936 64.9935 21.81 65.4788 21.558C65.9735 21.2967 66.4401 20.9 66.8788 20.368V18.996H64.7368V18.044H67.9428V23H66.8788V21.656C66.0201 22.5987 65.0121 23.07 63.8548 23.07ZM69.8589 23V13.06H71.1189V23H69.8589ZM85.6327 23V15.412L82.3567 21.25H81.5867L78.2967 15.412V23H77.0367V13.06H78.3667L81.9647 19.514L85.5767 13.06H86.8927V23H85.6327ZM92.297 13.06H93.361L97.421 23H96.077L94.901 20.088H90.729L89.567 23H88.223L92.297 13.06ZM94.621 19.108L92.829 14.516L90.981 19.108H94.621ZM106.742 13.06V23H105.482V18.478H100.008V23H98.7476V13.06H100.008V17.358H105.482V13.06H106.742ZM114.963 15.146C114.729 14.8847 114.37 14.6467 113.885 14.432C113.399 14.2173 112.858 14.11 112.261 14.11C111.495 14.11 110.931 14.2547 110.567 14.544C110.203 14.8333 110.021 15.23 110.021 15.734C110.021 16.0887 110.114 16.3687 110.301 16.574C110.487 16.7793 110.772 16.9473 111.155 17.078C111.547 17.2087 112.041 17.344 112.639 17.484C113.329 17.6333 113.927 17.8153 114.431 18.03C114.935 18.2447 115.322 18.534 115.593 18.898C115.863 19.2527 115.999 19.7287 115.999 20.326C115.999 20.9607 115.84 21.4833 115.523 21.894C115.205 22.3047 114.771 22.608 114.221 22.804C113.679 23 113.068 23.098 112.387 23.098C110.837 23.098 109.489 22.6313 108.341 21.698L108.943 20.634C109.148 20.8393 109.423 21.0447 109.769 21.25C110.123 21.4553 110.525 21.628 110.973 21.768C111.43 21.8987 111.911 21.964 112.415 21.964C113.124 21.964 113.675 21.838 114.067 21.586C114.459 21.3247 114.655 20.9467 114.655 20.452C114.655 20.0787 114.543 19.78 114.319 19.556C114.104 19.332 113.782 19.1453 113.353 18.996C112.923 18.8467 112.401 18.6973 111.785 18.548C111.113 18.38 110.548 18.198 110.091 18.002C109.633 17.7967 109.288 17.5307 109.055 17.204C108.831 16.8773 108.719 16.4527 108.719 15.93C108.719 15.2953 108.873 14.7587 109.181 14.32C109.489 13.8813 109.913 13.55 110.455 13.326C110.996 13.102 111.607 12.99 112.289 12.99C112.951 12.99 113.553 13.0927 114.095 13.298C114.645 13.5033 115.131 13.7787 115.551 14.124L114.963 15.146ZM121.758 23.07C120.964 23.07 120.297 22.9347 119.756 22.664C119.214 22.384 118.78 22.0107 118.454 21.544C118.127 21.068 117.889 20.5313 117.74 19.934C117.59 19.3367 117.516 18.7207 117.516 18.086V13.06H118.776V18.086C118.776 18.5713 118.822 19.0473 118.916 19.514C119.018 19.9713 119.182 20.382 119.406 20.746C119.63 21.11 119.933 21.3993 120.316 21.614C120.698 21.8287 121.174 21.936 121.744 21.936C122.322 21.936 122.803 21.8287 123.186 21.614C123.568 21.39 123.872 21.096 124.096 20.732C124.32 20.3587 124.478 19.9433 124.572 19.486C124.674 19.0287 124.726 18.562 124.726 18.086V13.06H125.986V18.086C125.986 18.758 125.906 19.3973 125.748 20.004C125.598 20.6013 125.356 21.1287 125.02 21.586C124.684 22.0433 124.245 22.4073 123.704 22.678C123.172 22.9393 122.523 23.07 121.758 23.07ZM128.224 23V13.06H129.484V21.88H135.028V23H128.224ZM140.118 23.07C139.418 23.07 138.783 22.93 138.214 22.65C137.644 22.37 137.15 21.992 136.73 21.516C136.319 21.0307 136.002 20.4893 135.778 19.892C135.554 19.2853 135.442 18.6647 135.442 18.03C135.442 17.3673 135.558 16.7373 135.792 16.14C136.034 15.5333 136.366 14.9967 136.786 14.53C137.215 14.054 137.714 13.6807 138.284 13.41C138.853 13.13 139.474 12.99 140.146 12.99C140.846 12.99 141.48 13.1347 142.05 13.424C142.619 13.7133 143.109 14.1007 143.52 14.586C143.93 15.0713 144.248 15.6127 144.472 16.21C144.696 16.8073 144.808 17.4187 144.808 18.044C144.808 18.7067 144.691 19.3413 144.458 19.948C144.224 20.5453 143.893 21.082 143.464 21.558C143.044 22.0247 142.549 22.3933 141.98 22.664C141.41 22.9347 140.79 23.07 140.118 23.07ZM136.716 18.03C136.716 18.534 136.795 19.024 136.954 19.5C137.122 19.9667 137.355 20.382 137.654 20.746C137.952 21.11 138.312 21.3993 138.732 21.614C139.152 21.8287 139.618 21.936 140.132 21.936C140.664 21.936 141.14 21.824 141.56 21.6C141.98 21.376 142.334 21.0773 142.624 20.704C142.922 20.3307 143.146 19.9107 143.296 19.444C143.454 18.9773 143.534 18.506 143.534 18.03C143.534 17.526 143.45 17.0407 143.282 16.574C143.123 16.1073 142.89 15.692 142.582 15.328C142.283 14.9547 141.924 14.6653 141.504 14.46C141.093 14.2453 140.636 14.138 140.132 14.138C139.6 14.138 139.124 14.25 138.704 14.474C138.284 14.6887 137.924 14.9827 137.626 15.356C137.336 15.7293 137.112 16.1493 136.954 16.616C136.795 17.0733 136.716 17.5447 136.716 18.03ZM153.412 14.18H149.982V23H148.722V14.18H145.292V13.06H153.412V14.18Z" fill="white"/>
</svg>
